<svg xmlns="http://www.w3.org/2000/svg" viewBox="0 0 500 1000" font-family="-apple-system, 'Helvetica Neue', Arial, sans-serif">
  <rect width="500" height="1000" fill="#EAE6DC"/>
  <text x="40" y="40" font-size="11" letter-spacing="2" fill="#6B7680" font-weight="500">VANDAAG · LIGHT · 9:14</text>

  <g transform="translate(55, 70)">
    <rect x="0" y="0" width="390" height="844" rx="55" fill="#3A3530"/>
    <rect x="6" y="6" width="378" height="832" rx="50" fill="#F6F5F1"/>

    <clipPath id="screen-vandaag-light">
      <rect x="6" y="6" width="378" height="832" rx="50"/>
    </clipPath>

    <g clip-path="url(#screen-vandaag-light)">
      <text x="40" y="36" font-size="14" fill="#0D1014" font-weight="600">9:14</text>
      <g transform="translate(310, 26)">
        <circle cx="0" cy="6" r="1.5" fill="#0D1014"/>
        <circle cx="6" cy="6" r="1.5" fill="#0D1014"/>
        <circle cx="12" cy="6" r="1.5" fill="#0D1014"/>
        <circle cx="18" cy="6" r="1.5" fill="#0D1014"/>
        <rect x="30" y="2" width="20" height="9" rx="2" fill="none" stroke="#0D1014" stroke-width="1"/>
        <rect x="32" y="4" width="14" height="5" fill="#0D1014"/>
      </g>
      <rect x="155" y="18" width="80" height="26" rx="13" fill="#0D1014"/>

      <text x="30" y="98" font-size="26" font-weight="500" letter-spacing="-0.5" fill="#0D1014" font-family="'Tiempos Text', Georgia, serif">runtime<tspan fill="#E8A65A">.</tspan></text>
      <text x="346" y="98" font-size="11" letter-spacing="2" fill="#6B7680" font-weight="500" text-anchor="end">DI 26 MEI</text>

      <g transform="translate(30, 125)">
        <line x1="0" y1="14" x2="330" y2="14" stroke="#C3BCAE" stroke-width="0.75"/>
        <line x1="0" y1="10" x2="0" y2="18" stroke="#C3BCAE" stroke-width="1"/>
        <line x1="30" y1="10" x2="30" y2="18" stroke="#C3BCAE" stroke-width="1"/>
        <line x1="60" y1="10" x2="60" y2="18" stroke="#C3BCAE" stroke-width="1"/>
        <line x1="90" y1="4" x2="90" y2="24" stroke="#0D1014" stroke-width="1.5"/>
        <circle cx="90" cy="14" r="4" fill="#E8A65A"/>
        <line x1="120" y1="10" x2="120" y2="18" stroke="#C3BCAE" stroke-width="1"/>
        <line x1="150" y1="10" x2="150" y2="18" stroke="#C3BCAE" stroke-width="1"/>
        <line x1="180" y1="10" x2="180" y2="18" stroke="#C3BCAE" stroke-width="1"/>
        <line x1="210" y1="10" x2="210" y2="18" stroke="#C3BCAE" stroke-width="1"/>
        <line x1="240" y1="10" x2="240" y2="18" stroke="#C3BCAE" stroke-width="1"/>
        <line x1="270" y1="10" x2="270" y2="18" stroke="#C3BCAE" stroke-width="1"/>
        <line x1="300" y1="10" x2="300" y2="18" stroke="#C3BCAE" stroke-width="1"/>
        <line x1="330" y1="2" x2="330" y2="26" stroke="#0D1014" stroke-width="1.5"/>
        <rect x="330" y="2" width="8" height="7" fill="#0D1014"/>
        <text x="0" y="50" font-size="9" letter-spacing="1" fill="#6B7680">WEEK 4 / 12 · MECHELEN OVER 96 DAGEN</text>
      </g>

      <rect x="30" y="200" width="330" height="36" rx="8" fill="#7B9D7A" fill-opacity="0.12"/>
      <circle cx="48" cy="218" r="3.5" fill="#7B9D7A"/>
      <text x="62" y="222" font-size="12" fill="#3A4A52">Plan vanmorgen aangepast. Je liep zaterdag sterker.</text>

      <text x="30" y="320" font-size="56" font-weight="700" letter-spacing="-2.2" fill="#0D1014">Tempo.</text>
      <text x="30" y="380" font-size="56" font-weight="700" letter-spacing="-2.2" fill="#8C8678">8 km.</text>
      <text x="30" y="420" font-size="17" fill="#3A4A52">Houd het comfortabel zwaar.</text>

      <rect x="30" y="465" width="330" height="160" rx="14" fill="#EFEDE5"/>
      <text x="50" y="494" font-size="10" letter-spacing="1.5" fill="#6B7680">DOELPAS</text>
      <text x="50" y="550" font-size="56" font-weight="500" fill="#0D1014" font-family="'JetBrains Mono', monospace" letter-spacing="-2">4:38</text>
      <text x="184" y="550" font-size="14" fill="#6B7680" font-family="'JetBrains Mono', monospace">/km</text>
      <line x1="50" y1="572" x2="340" y2="572" stroke="#C3BCAE" stroke-width="0.5"/>
      <text x="50" y="594" font-size="10" letter-spacing="1.5" fill="#6B7680">OPBOUW</text>
      <text x="50" y="615" font-size="14" fill="#1B2531">2 km inlopen · 4 km tempo · 2 km uitlopen</text>

      <rect x="30" y="720" width="330" height="56" rx="28" fill="#0D1014"/>
      <text x="195" y="755" font-size="16" font-weight="700" fill="#F6F5F1" text-anchor="middle">Start de training</text>
      <text x="195" y="798" font-size="13" fill="#6B7680" text-anchor="middle">Verschuif naar morgen</text>

      <rect x="135" y="824" width="120" height="4" rx="2" fill="#C3BCAE"/>
    </g>
  </g>

  <text x="40" y="945" font-size="11" fill="#6B7680">Left-aligned headline. Adaptation row only when it fired today. The race anchor is gone — the ribbon caption does that work.</text>
</svg>
