<svg xmlns="http://www.w3.org/2000/svg" viewBox="0 0 1200 900" font-family="-apple-system, 'Helvetica Neue', Arial, sans-serif">
  <rect width="1200" height="900" fill="#EAE6DC"/>
  <text x="40" y="40" font-size="11" letter-spacing="2" fill="#6B7680" font-weight="500">COACH CONSOLE · PARTNER ADMIN · DESKTOP · LEGIBILITY TEST PER 003 §7.4</text>

  <!-- browser chrome -->
  <g transform="translate(50, 70)">
    <rect x="0" y="0" width="1100" height="36" rx="8" fill="#D8D5CB"/>
    <circle cx="20" cy="18" r="5" fill="#FF6058"/>
    <circle cx="40" cy="18" r="5" fill="#FFBD2E"/>
    <circle cx="60" cy="18" r="5" fill="#28C840"/>
    <rect x="280" y="9" width="540" height="18" rx="9" fill="#F6F5F1"/>
    <text x="300" y="22" font-size="11" fill="#6B7680" font-family="'JetBrains Mono', monospace">runtime.training/coach</text>
  </g>

  <g transform="translate(50, 106)">
    <rect x="0" y="0" width="1100" height="730" fill="#F6F5F1"/>
    <line x1="0" y1="0" x2="1100" y2="0" stroke="#D8D5CB" stroke-width="0.5"/>

    <!-- top bar -->
    <g>
      <rect x="0" y="0" width="1100" height="56" fill="#EFEDE5"/>
      <line x1="0" y1="56" x2="1100" y2="56" stroke="#D8D5CB" stroke-width="0.5"/>

      <text x="32" y="36" font-size="17" font-weight="500" letter-spacing="-0.35" fill="#0D1014" font-family="'Tiempos Text', Georgia, serif">runtime<tspan fill="#E8A65A">.</tspan></text>
      <text x="130" y="36" font-size="10" letter-spacing="1.5" fill="#6B7680" font-weight="500">COACH CONSOLE · PILOT</text>

      <text x="1068" y="36" font-size="12" fill="#6B7680" text-anchor="end">An · Uitloggen</text>
    </g>

    <!-- LEFT: runner list -->
    <g transform="translate(0, 56)">
      <rect x="0" y="0" width="260" height="674" fill="#F6F5F1"/>
      <line x1="260" y1="0" x2="260" y2="674" stroke="#D8D5CB" stroke-width="0.5"/>

      <text x="20" y="32" font-size="10" letter-spacing="1.5" fill="#6B7680" font-weight="500">20 LOPERS · ACTIEF</text>

      <!-- search box -->
      <rect x="20" y="48" width="220" height="32" rx="16" fill="#EFEDE5"/>
      <text x="36" y="68" font-size="12" fill="#8C8678">Zoeken…</text>

      <!-- runner: Tom selected -->
      <g transform="translate(0, 96)">
        <rect x="0" y="0" width="260" height="66" fill="#EFEDE5"/>
        <rect x="0" y="0" width="3" height="66" fill="#E8A65A"/>
        <text x="20" y="22" font-size="13" font-weight="600" fill="#0D1014">Tom Vermeulen</text>
        <text x="20" y="40" font-size="11" fill="#6B7680">Week 4 / 12 · Mechelen</text>
        <text x="20" y="56" font-size="11" fill="#6B7680">Laatste: vandaag 07:14</text>
      </g>

      <g transform="translate(0, 162)">
        <line x1="0" y1="0" x2="260" y2="0" stroke="#D8D5CB" stroke-width="0.5"/>
        <text x="20" y="22" font-size="13" fill="#0D1014">Liesbeth Cools</text>
        <text x="20" y="40" font-size="11" fill="#6B7680">Week 6 / 12 · 10 km onder uur</text>
        <text x="20" y="56" font-size="11" fill="#6B7680">Laatste: gisteren 20:08</text>
      </g>

      <g transform="translate(0, 228)">
        <line x1="0" y1="0" x2="260" y2="0" stroke="#D8D5CB" stroke-width="0.5"/>
        <text x="20" y="22" font-size="13" fill="#0D1014">Karel De Smet</text>
        <text x="20" y="40" font-size="11" fill="#6B7680">Week 9 / 14 · Antwerp 10 Miles</text>
        <text x="20" y="56" font-size="11" fill="#B8721A">Geen activiteit · 4 dagen</text>
        <circle cx="245" cy="33" r="3" fill="#E8A65A"/>
      </g>

      <g transform="translate(0, 294)">
        <line x1="0" y1="0" x2="260" y2="0" stroke="#D8D5CB" stroke-width="0.5"/>
        <text x="20" y="22" font-size="13" fill="#0D1014">Sofie Janssens</text>
        <text x="20" y="40" font-size="11" fill="#6B7680">Week 2 / 16 · halve Brugge</text>
        <text x="20" y="56" font-size="11" fill="#6B7680">Laatste: gisteren 18:42</text>
      </g>

      <g transform="translate(0, 360)">
        <line x1="0" y1="0" x2="260" y2="0" stroke="#D8D5CB" stroke-width="0.5"/>
        <text x="20" y="22" font-size="13" fill="#0D1014">Jan Peeters</text>
        <text x="20" y="40" font-size="11" fill="#6B7680">Week 7 / 8 · terug aan het lopen</text>
        <text x="20" y="56" font-size="11" fill="#6B7680">Laatste: vandaag 06:32</text>
      </g>

      <g transform="translate(0, 426)">
        <line x1="0" y1="0" x2="260" y2="0" stroke="#D8D5CB" stroke-width="0.5"/>
        <text x="20" y="22" font-size="13" fill="#0D1014">Marie Vandevelde</text>
        <text x="20" y="40" font-size="11" fill="#6B7680">Week 11 / 12 · Stadsloop Mechelen</text>
        <text x="20" y="56" font-size="11" fill="#6B7680">Laatste: vandaag 06:48</text>
      </g>

      <g transform="translate(0, 492)">
        <line x1="0" y1="0" x2="260" y2="0" stroke="#D8D5CB" stroke-width="0.5"/>
        <text x="20" y="22" font-size="13" fill="#0D1014">Pieter Goossens</text>
        <text x="20" y="40" font-size="11" fill="#6B7680">Week 3 / 12 · 10 km uitlopen</text>
        <text x="20" y="56" font-size="11" fill="#6B7680">Laatste: gisteren 19:12</text>
      </g>

      <g transform="translate(0, 558)">
        <line x1="0" y1="0" x2="260" y2="0" stroke="#D8D5CB" stroke-width="0.5"/>
        <text x="20" y="36" font-size="13" fill="#8C8678">+ 13 verder…</text>
      </g>
    </g>

    <!-- RIGHT: detail pane -->
    <g transform="translate(260, 56)">

      <!-- header -->
      <g transform="translate(0, 0)">
        <text x="32" y="38" font-size="24" font-weight="700" letter-spacing="-0.7" fill="#0D1014">Tom Vermeulen</text>
        <text x="32" y="60" font-size="12" fill="#6B7680">42 · 18 km/week bij start · 5K in 27:48 (12 mei)</text>

        <rect x="660" y="20" width="160" height="36" rx="6" fill="none" stroke="#0D1014" stroke-width="1"/>
        <text x="740" y="42" font-size="12" fill="#0D1014" text-anchor="middle">Stuur een bericht</text>

        <rect x="828" y="20" width="170" height="36" rx="6" fill="#0D1014"/>
        <text x="913" y="42" font-size="12" fill="#F6F5F1" text-anchor="middle">Plan aanpassen</text>
      </g>

      <!-- mini ribbon -->
      <g transform="translate(32, 100)">
        <rect x="0" y="0" width="776" height="78" rx="6" fill="#EFEDE5"/>

        <g transform="translate(20, 26)">
          <line x1="0" y1="14" x2="700" y2="14" stroke="#C3BCAE" stroke-width="0.75"/>
          <line x1="0" y1="10" x2="0" y2="18" stroke="#C3BCAE"/>
          <line x1="63" y1="10" x2="63" y2="18" stroke="#C3BCAE"/>
          <line x1="126" y1="10" x2="126" y2="18" stroke="#C3BCAE"/>
          <line x1="189" y1="4" x2="189" y2="24" stroke="#0D1014" stroke-width="1.5"/>
          <circle cx="189" cy="14" r="4.5" fill="#E8A65A"/>
          <line x1="252" y1="10" x2="252" y2="18" stroke="#C3BCAE"/>
          <line x1="315" y1="10" x2="315" y2="18" stroke="#C3BCAE"/>
          <line x1="378" y1="10" x2="378" y2="18" stroke="#C3BCAE"/>
          <line x1="441" y1="10" x2="441" y2="18" stroke="#C3BCAE"/>
          <line x1="504" y1="10" x2="504" y2="18" stroke="#C3BCAE"/>
          <line x1="567" y1="10" x2="567" y2="18" stroke="#C3BCAE"/>
          <line x1="630" y1="10" x2="630" y2="18" stroke="#C3BCAE"/>
          <line x1="700" y1="2" x2="700" y2="26" stroke="#0D1014" stroke-width="1.5"/>
          <rect x="700" y="2" width="8" height="7" fill="#0D1014"/>
          <text x="0" y="48" font-size="10" letter-spacing="1" fill="#6B7680">WEEK 4 / 12 · MECHELEN OVER 96 DAGEN</text>
        </g>
      </g>

      <!-- THREE COLUMN: DEZE WEEK · STRAVA · GESPREK -->
      <g transform="translate(32, 196)">

        <!-- Deze week -->
        <g>
          <rect x="0" y="0" width="252" height="240" rx="6" fill="#EFEDE5"/>
          <text x="20" y="28" font-size="10" letter-spacing="1.5" fill="#6B7680" font-weight="500">DEZE WEEK</text>

          <text x="20" y="56" font-size="12" fill="#6B7680">ma</text>
          <text x="60" y="56" font-size="12" fill="#0D1014">Rust</text>

          <text x="20" y="82" font-size="12" fill="#6B7680">di</text>
          <text x="60" y="82" font-size="12" fill="#0D1014" font-weight="600">Tempo 8 km</text>
          <text x="232" y="82" font-size="11" fill="#8C8678" text-anchor="end">vandaag</text>

          <text x="20" y="108" font-size="12" fill="#6B7680">wo</text>
          <text x="60" y="108" font-size="12" fill="#0D1014">Rust</text>

          <text x="20" y="134" font-size="12" fill="#6B7680">do</text>
          <text x="60" y="134" font-size="12" fill="#0D1014">Duurloop 6 km</text>

          <text x="20" y="160" font-size="12" fill="#6B7680">vr</text>
          <text x="60" y="160" font-size="12" fill="#0D1014">Rust</text>

          <text x="20" y="186" font-size="12" fill="#6B7680">za</text>
          <text x="60" y="186" font-size="12" fill="#0D1014">Lange 14 km</text>

          <text x="20" y="212" font-size="12" fill="#6B7680">zo</text>
          <text x="60" y="212" font-size="12" fill="#0D1014">Rust</text>
        </g>

        <!-- Strava -->
        <g transform="translate(262, 0)">
          <rect x="0" y="0" width="252" height="240" rx="6" fill="#EFEDE5"/>
          <text x="20" y="28" font-size="10" letter-spacing="1.5" fill="#6B7680" font-weight="500">STRAVA · 7 DAGEN</text>

          <text x="20" y="62" font-size="12" fill="#1B2531">za · lange duurloop</text>
          <text x="232" y="62" font-size="12" fill="#0D1014" font-family="'JetBrains Mono', monospace" text-anchor="end">13,8 km</text>

          <text x="20" y="90" font-size="12" fill="#1B2531">do · duurloop</text>
          <text x="232" y="90" font-size="12" fill="#0D1014" font-family="'JetBrains Mono', monospace" text-anchor="end">6,2 km</text>

          <text x="20" y="118" font-size="12" fill="#1B2531">di · tempo</text>
          <text x="232" y="118" font-size="12" fill="#0D1014" font-family="'JetBrains Mono', monospace" text-anchor="end">8,1 km</text>

          <line x1="20" y1="140" x2="232" y2="140" stroke="#D8D5CB" stroke-width="0.5"/>

          <text x="20" y="162" font-size="11" fill="#6B7680">Weekvolume</text>
          <text x="232" y="162" font-size="11" fill="#0D1014" font-family="'JetBrains Mono', monospace" text-anchor="end">28,1 km</text>

          <text x="20" y="184" font-size="11" fill="#6B7680">Vs. vorige week</text>
          <text x="232" y="184" font-size="11" fill="#7B9D7A" font-family="'JetBrains Mono', monospace" text-anchor="end">+2,3 km</text>

          <text x="20" y="218" font-size="11" fill="#8C8678">vorige week →</text>
        </g>

        <!-- Gesprek -->
        <g transform="translate(524, 0)">
          <rect x="0" y="0" width="252" height="240" rx="6" fill="#EFEDE5"/>
          <text x="20" y="28" font-size="10" letter-spacing="1.5" fill="#6B7680" font-weight="500">GESPREK · LAATSTE 3</text>

          <text x="20" y="58" font-size="11" fill="#6B7680">An ·</text>
          <text x="48" y="58" font-size="11" fill="#0D1014">Hoe voelde de zaterdag?</text>

          <text x="20" y="92" font-size="11" fill="#6B7680">Tom ·</text>
          <text x="55" y="92" font-size="11" fill="#0D1014">Zwaar tot km 8.</text>
          <text x="55" y="108" font-size="11" fill="#0D1014">Daarna ging het beter.</text>

          <text x="20" y="142" font-size="11" fill="#6B7680">An ·</text>
          <text x="48" y="142" font-size="11" fill="#0D1014">Goed gedaan. Vandaag</text>
          <text x="48" y="158" font-size="11" fill="#0D1014">rustig blijven…</text>

          <line x1="20" y1="190" x2="232" y2="190" stroke="#D8D5CB" stroke-width="0.5"/>

          <text x="20" y="214" font-size="12" fill="#0D1014" font-weight="600">Open gesprek →</text>
        </g>

      </g>

      <!-- adaptation notice -->
      <g transform="translate(32, 462)">
        <rect x="0" y="0" width="776" height="48" rx="6" fill="#7B9D7A" fill-opacity="0.12"/>
        <circle cx="22" cy="24" r="4" fill="#7B9D7A"/>
        <text x="36" y="20" font-size="11" letter-spacing="1.5" fill="#5A7559" font-weight="600">PLAN AUTO-AANGEPAST · MA 25 MEI 06:00</text>
        <text x="36" y="38" font-size="12" fill="#3A4A52">Tom liep zaterdag sterker dan verwacht. Doelpas 4:46 → 4:38. Weekvolume 32 → 35 km.</text>

        <text x="744" y="30" font-size="12" fill="#0D1014" font-weight="600" text-anchor="end">Bekijken →</text>
      </g>

      <!-- footnote about other runners -->
      <g transform="translate(32, 540)">
        <text x="0" y="0" font-size="11" fill="#6B7680">Eén loper vraagt aandacht: <tspan font-weight="600" fill="#B8721A">Karel De Smet</tspan> · geen activiteit in 4 dagen. Bekijk de lijst om in gesprek te gaan.</text>
      </g>

    </g>

  </g>

  <text x="40" y="870" font-size="11" fill="#6B7680">Legibility test only. The same data model that powers Vandaag drives this surface. One CTA: "Plan aanpassen." Everything else read-only.</text>
</svg>
